/* XPM */
static char * 3216_xpm[] = {
"32 16 171 2",
"  	c #B3B43D",
". 	c #B2B33D",
"+ 	c #AFB03B",
"@ 	c #ABAC3A",
"# 	c #A7A738",
"$ 	c #A2A336",
"% 	c #9FA035",
"& 	c #999933",
"* 	c #949531",
"= 	c #8C8C2E",
"- 	c #8D8E2F",
"; 	c #909130",
"> 	c #9E9E35",
", 	c #A8A939",
"' 	c #B0B13C",
") 	c #AEAF3B",
"! 	c #A3A437",
"~ 	c #959631",
"{ 	c #85862B",
"] 	c #7B7C27",
"^ 	c #727224",
"/ 	c #66671F",
"( 	c #5E5F1C",
"_ 	c #555618",
": 	c #58591A",
"< 	c #61621D",
"[ 	c #7F8029",
"} 	c #9C9C34",
"| 	c #ACAD3A",
"1 	c #B1B23C",
"2 	c #A7A838",
"3 	c #90912F",
"4 	c #707123",
"5 	c #555619",
"6 	c #484914",
"7 	c #3D3E10",
"8 	c #2D2D09",
"9 	c #292908",
"0 	c #1E1E04",
"a 	c #272707",
"b 	c #30300A",
"c 	c #8F902F",
"d 	c #A9AA39",
"e 	c #AFB03C",
"f 	c #A1A236",
"g 	c #4D4D15",
"h 	c #292907",
"i 	c #212205",
"j 	c #1A1A04",
"k 	c #0B0B01",
"l 	c #0E0E01",
"m 	c #060601",
"n 	c #151503",
"o 	c #5B5C1B",
"p 	c #8E8F2E",
"q 	c #2A2A08",
"r 	c #242406",
"s 	c #222205",
"t 	c #171703",
"u 	c #0B0C01",
"v 	c #1C1C04",
"w 	c #3C3D0F",
"x 	c #6E6F23",
"y 	c #979832",
"z 	c #999A33",
"A 	c #8E8F2F",
"B 	c #8F8F2F",
"C 	c #9B9C34",
"D 	c #717223",
"E 	c #575819",
"F 	c #4F4F16",
"G 	c #4A4B14",
"H 	c #3D3E0F",
"I 	c #282807",
"J 	c #141402",
"K 	c #252606",
"L 	c #818229",
"M 	c #A2A337",
"N 	c #AAAB39",
"O 	c #797A27",
"P 	c #62631D",
"Q 	c #898A2D",
"R 	c #83842A",
"S 	c #797927",
"T 	c #5C5C1B",
"U 	c #36370D",
"V 	c #1A1A03",
"W 	c #2C2C09",
"X 	c #58581A",
"Y 	c #8B8B2E",
"Z 	c #A6A738",
"` 	c #ADAE3B",
" .	c #A4A537",
"..	c #787826",
"+.	c #515117",
"@.	c #33330B",
"#.	c #64651E",
"$.	c #929330",
"%.	c #959632",
"&.	c #6D6D21",
"*.	c #3A3B0E",
"=.	c #181903",
"-.	c #282907",
";.	c #545418",
">.	c #81822A",
",.	c #9A9B33",
"'.	c #8A8B2D",
").	c #808029",
"!.	c #6E6F22",
"~.	c #535318",
"{.	c #32330B",
"].	c #1B1B04",
"^.	c #2F2F0A",
"/.	c #939430",
"(.	c #9E9F35",
"_.	c #39390E",
":.	c #121302",
"<.	c #1F1F05",
"[.	c #404010",
"}.	c #707023",
"|.	c #6C6D21",
"1.	c #555518",
"2.	c #4B4C15",
"3.	c #1D1D04",
"4.	c #111102",
"5.	c #6C6D22",
"6.	c #787926",
"7.	c #414111",
"8.	c #181803",
"9.	c #38390D",
"0.	c #2E2F09",
"a.	c #202105",
"b.	c #191903",
"c.	c #2F300A",
"d.	c #585819",
"e.	c #84842B",
"f.	c #B2B33C",
"g.	c #A5A638",
"h.	c #4C4C15",
"i.	c #0D0D01",
"j.	c #202005",
"k.	c #151502",
"l.	c #121202",
"m.	c #2B2B08",
"n.	c #3D3D0F",
"o.	c #5C5D1B",
"p.	c #939431",
"q.	c #6A6B21",
"r.	c #3B3B0E",
"s.	c #35350C",
"t.	c #3E3E10",
"u.	c #494914",
"v.	c #88892C",
"w.	c #9D9E35",
"x.	c #AAAB3A",
"y.	c #8B8C2E",
"z.	c #6D6E22",
"A.	c #494A14",
"B.	c #545518",
"C.	c #60601D",
"D.	c #67671F",
"E.	c #6C6C21",
"F.	c #757525",
"G.	c #7F7F29",
"H.	c #A6A638",
"I.	c #989932",
"J.	c #8B8B2D",
"K.	c #83832A",
"L.	c #919230",
"M.	c #A5A637",
"N.	c #A9A939",
"          . + @ # $ % & * = - ; > , '                           ",
"        . ) ! ~ { ] ^ / ( _ : < [ } | .                         ",
"        1 2 3 4 5 6 7 8 9 0 a b < c d 1         . 1 1 .         ",
"        e f [ g h i j k l m n a o p d 1       ' | d d | '       ",
"        e f [ g q r s 0 t u v w x y | .     ' 2 z A B C , '     ",
"        1 2 3 D E F G H I J K F L M e   . 1 N ~ O ( P [ > ) .   ",
"        . ) ! ~ Q R S T U V W X Y Z + ` N  .~ ..+.W @.#.$.@ .   ",
"          . + @ 2  .%.&.*.=.-.;.>.z ,.* '.).!.~.{.].^.< /.@ .   ",
"              . 1 ) (.4 _.:.<.[.< }.|.< 1.2.w W 3.4.U 5.y `     ",
"                  ' $ 6.7.=.8.I *.7.9.0.r a.b.n b.c.d.e. .'     ",
"                  f.g.>.h.b.i.4.].j.b.k.l.b.3.m.n.o.[ C |       ",
"                  . @ p.q.r.s V j.I b @.s.t.u.T D v.w.x..       ",
"                    e ! y.z.5 A.h.B.C.D.E.F.G.A ,.2 ) .         ",
"                      + H.I.J.K.R Q L.I.} f M.x.) f.            ",
"                        1 ` d Z 2 N.| ) ' ' f..                 ",
"                            . 1 1 . .                           "};
