/* XPM */
static char * wall2_xpm[] = {
"4 4 2 1",
" 	c #BD3434",
".	c #BD3535",
"   .",
"    ",
"    ",
"    "};
